<svg xmlns="http://www.w3.org/2000/svg" width="256" height="256" viewBox="0 0 256 256">
  <defs>
    <linearGradient id="g" x1="0" x2="1" y1="0" y2="1">
      <stop offset="0%" stop-color="#FDD023"/>
      <stop offset="100%" stop-color="#ffd95a"/>
    </linearGradient>
    <style>
      .s{stroke:#461D7C; fill:none; stroke-width:8; stroke-linecap:round; stroke-linejoin:round}
    </style>
  </defs>
  <circle cx="128" cy="128" r="118" fill="white" stroke="#461D7C" stroke-width="6" opacity="0.35"/>
  <!-- Capsid -->
  <polygon class="s" points="128,44 176,72 176,128 128,156 80,128 80,72"/>
  <circle cx="128" cy="100" r="10" fill="#461D7C"/>
  <!-- Helix curves -->
  <path d="M70,70 C110,50 146,70 172,98" class="s"/>
  <path d="M70,186 C110,206 146,186 172,158" class="s"/>
  <!-- Guinea pig shape -->
  <path d="M56,160 Q120,130 180,140 Q200,144 202,154 Q204,168 186,176 Q160,188 120,188 Q86,188 56,160 Z" fill="url(#g)"/>
</svg>
