<?xml version="1.0" encoding="UTF-8"?>
<svg id="Layer_1" data-name="Layer 1" xmlns="http://www.w3.org/2000/svg" viewBox="0 0 730 668">
  <defs>
    <style>
      .cls-1 {
        fill: #fff;
      }
    </style>
  </defs>
  <path class="cls-1" d="M730,0v668H0V0h730ZM203.44,607.97h39.23c6.51,0,6.93-6.81,5.38-11.57-3.02-9.3-27.41-13.98-36.64-13.98,1.52-13.69,2.25-27.55,5.97-40.89,9.91-35.51,39.93-61.38,68.01-84.19,14.03,11.66,29.68,22.07,40.37,36.95h-60.5c-.4,0-6.61,2.67-7.28,3.23-5.48,4.6-2.65,13,3.56,15.67l78.63.47c4.72,9.97,8.74,20.54,10.49,31.43,4.36,27.13-4.88,61.24,34.22,64.2,14.92,1.13,41.07,1.19,55.94,0,3.65-.29,11.11-.94,12.34-4.77,2.95-12.72-13.52-13.17-19.76-18.85-9.35-8.5-6.79-20.72-4.6-31.37,14.85-72.44,86.33-55.34,116.12-110.7,16-29.73,12.17-46-13.04-67.48-20.6-17.55-46.61-28.73-72.87-36.02-5.38-1.49-16.87-2.34-20.66-4.42-2.77-1.53-5.28-8.34-8.17-11.31-14.54-15.01-44.54-16.64-52.59,5.16-14.81-6.92-33.56-11.43-48.79-2.82-15.44,8.73-9.01,27.52-5.87,40.98-27.29,12.74-58.35,19.83-88.91,17.38-10.94-10.9-17.43-26.39-18.63-41.49h73.8c.4,0,6.61-2.67,7.28-3.23,5.96-4.99,1.48-17.21-4.62-17.21h-76.46c5.89-37.46,37.16-66.36,67.39-87.92,28.35,17.16,54.59,42.97,65.7,73.77l19.83-3.73c-9.63-36.14-39.68-61.53-67.79-84.93,34.12-23.76,61.78-57.67,70.87-97.94,2.58-11.42,9.92-44.09-5.75-47.77-14.66-3.44-11.17,18.74-11.98,25.63-5.6,47.44-31.08,79.9-69.8,107.73-2.3-.02-30.38-26.85-33.24-30.43-1.02-1.28-2.58-1.62-1.98-3.83l64.27-1.49c8.52-9.69,7.86-17.42-6.43-18.96-22.9-2.47-50.52,1.61-73.82.65-9.9-12.14-15.76-30.69-17.25-46-1.09-11.23,4.75-30.55-13.88-28.62-5.29.55-6.92,4.78-7.45,9.46-2.23,19.57,3.7,45.84,12.19,63.71,13.69,28.84,37.99,48.14,60.98,69.77-48.41,32.75-88.16,83.93-68.19,144.08,2.13,6.41,5.9,11.93,8.35,18.15-44.82,6.18-84.29,43.27-100.86,82.57-2.11,5.01-8.17,22.21-8.17,26.64v31.93c0,.3,2.53,1.71.65,1.92l-1.96-.02c-7.18-12.9-17.24-24.08-25.03-36.64C-60.28,277.74,103.56,12.89,361.07,24.21c32.18,1.41,63.85,8.45,93.64,19.9,8.43,3.24,30.94,18.77,35.4,4.47,3.19-10.24-12.56-15.63-20.25-19.02C340.98-27.19,177.7,14.52,87.8,116.9c-183.18,208.6-39.48,529.95,245.24,542.21,179.35,7.72,344.59-124.65,358.4-298.3.76-9.59,3.85-26.73-12.34-22.08-8.46,2.43-5.57,14.84-6.27,20.8-25.42,213.66-251.83,338.85-457.88,254.64l-11.49-6.21ZM603.23,66.85c-10.45-10.51-30.52-1.77-27.17,13.96,1.4,6.59,8.04,8.58,8.79,10.72.5,1.41.58,9.85,0,10.47-.3.32-3.09.61-4.44,1.41-25.28,15.17-52.13,27.96-77.29,43.35-2.97,2.94-10.48-.73-12.47-3.07-3.04-3.58.28-10.68-8.09-15.22-22.68-12.28-33.72,27.5-8.42,28.56,7.28.3,10.43-7.4,17.93,1.9l1.26,91.79-8.65,5.59c-30.53-17-33.75,34.14-4.59,25.39,11.15-3.35,6.1-19.92,20.24-19.67,18.98,10.91,38.69,20.68,57.7,31.52,4.62,2.63,26.38,14.11,27.67,16.84,4.99,10.56-12.41,9.45-9.87,24.81,2.93,17.79,37.8,15.15,29.92-9.57-1.98-6.19-13.97-7.35-7.4-17.19l85.79-47.47c11.59,2.64,8.45,13.17,15.92,18.77,16.01,12.02,34.71-12.25,19.22-23.57-10.24-7.49-15.55.29-21.21-1.23-1.02-.28-7.48-4.38-8.06-5.15l-.96-87.95,9.93-8.35c13.34,9.56,31.08-2.66,24.69-17.77-4.14-9.78-20.51-11.38-26.7-2.03-4.14,6.25-2.75,12.96-13.85,14.3l-85.87-47.28c-3.02-9.69,3.2-8.42,7.03-13.92,4.31-6.17,4.49-14.37-1.05-19.94ZM351.04,103.46h-132.97v1.28h132.97v-1.28ZM348.38,117.51h-128.98v1.28h128.98v-1.28ZM325.77,274.61h-83.77v1.28h83.77v-1.28ZM336.41,288.66h-105.05v1.28h105.05v-1.28ZM291.2,376.79h-61.17v1.28h61.17v-1.28ZM348.38,546.66h-121v1.28h121v-1.28ZM349.71,561.99h-134.3v1.28h134.3v-1.28Z"/>
  <path d="M203.44,607.97l11.49,6.21c206.05,84.2,432.46-40.98,457.88-254.64.71-5.95-2.18-18.37,6.27-20.8,16.2-4.65,13.11,12.49,12.34,22.08-13.81,173.65-179.05,306.02-358.4,298.3C48.32,646.85-95.38,325.51,87.8,116.9,177.7,14.52,340.98-27.19,469.86,29.56c7.7,3.39,23.44,8.78,20.25,19.02-4.46,14.3-26.97-1.23-35.4-4.47-29.78-11.45-61.46-18.48-93.64-19.9C103.56,12.89-60.28,277.74,72.06,490.86c7.8,12.55,17.85,23.74,25.03,36.64l1.96.02c1.88-.21-.65-1.63-.65-1.92v-31.93c0-4.43,6.06-21.63,8.17-26.64,16.58-39.3,56.04-76.39,100.86-82.57-2.45-6.22-6.22-11.74-8.35-18.15-19.97-60.15,19.79-111.33,68.19-144.08-22.98-21.63-47.28-40.93-60.98-69.77-8.49-17.87-14.42-44.14-12.19-63.71.53-4.68,2.16-8.91,7.45-9.46,18.63-1.93,12.79,17.4,13.88,28.62,1.49,15.31,7.35,33.86,17.25,46,23.29.97,50.92-3.11,73.82-.65,14.29,1.54,14.95,9.27,6.43,18.96l-64.27,1.49c-.6,2.22.96,2.55,1.98,3.83,2.85,3.58,30.94,30.41,33.24,30.43,38.73-27.83,64.2-60.29,69.8-107.73.81-6.89-2.68-29.07,11.98-25.63,15.67,3.68,8.33,36.35,5.75,47.77-9.1,40.27-36.75,74.18-70.87,97.94,28.11,23.4,58.16,48.79,67.79,84.93l-19.83,3.73c-11.11-30.8-37.35-56.61-65.7-73.77-30.23,21.57-61.5,50.46-67.39,87.92h76.46c6.1,0,10.57,12.22,4.62,17.21-.67.56-6.88,3.23-7.28,3.23h-73.8c1.2,15.1,7.69,30.6,18.63,41.49,30.56,2.45,61.62-4.64,88.91-17.38-3.13-13.46-9.57-32.25,5.87-40.98,15.23-8.61,33.98-4.1,48.79,2.82,8.05-21.8,38.05-20.16,52.59-5.16,2.88,2.98,5.4,9.79,8.17,11.31,3.79,2.09,15.28,2.93,20.66,4.42,26.26,7.29,52.27,18.47,72.87,36.02,25.21,21.48,29.04,37.75,13.04,67.48-29.79,55.36-101.27,38.26-116.12,110.7-2.18,10.65-4.75,22.86,4.6,31.37,6.24,5.68,22.71,6.13,19.76,18.85-1.23,3.83-8.69,4.47-12.34,4.77-14.87,1.2-41.02,1.13-55.94,0-39.1-2.96-29.87-37.07-34.22-64.2-1.75-10.9-5.77-21.46-10.49-31.43l-78.63-.47c-6.21-2.67-9.04-11.07-3.56-15.67.66-.56,6.88-3.23,7.28-3.23h60.5c-10.7-14.87-26.34-25.29-40.37-36.95-28.09,22.81-58.1,48.68-68.01,84.19-3.72,13.33-4.45,27.2-5.97,40.89,9.22,0,33.62,4.68,36.64,13.98,1.54,4.76,1.13,11.57-5.38,11.57h-39.23ZM384.95,590.09c6.28.84,15.84,0,22.6,0,.5,0,3.37-.18,3.34-.66-11.4-27.28,2.98-65.96,21.91-87.49,28.33-32.22,86.14-32.79,99.45-79.46,4.15-14.54,2.04-17.85-8.98-27.85-25.73-23.36-66.88-38.5-101.84-41.4-2.94-13.11-12.75-21.67-26.51-14.75-1.12,1.47,11.4,13.12,13.08,16.15,3.75,6.76,3.63,11.69-.39,18.37-7.54,12.55-13.46-4.4-19.31-10.95-9.57-10.72-22.95-20.16-38.13-20.95-21.87-1.13-7.04,18.1-3.44,27.67,3.95,10.5,5.48,16.94,1.72,27.86-6.77,19.66-29.39,34.61-45.28,47.23-.52,2.02,27.15,24.43,31.27,28.68,20.96,21.65,34.28,46.34,37.86,76.03.91,7.53-.17,35.69,4.77,38.84.72.46,6.97,2.53,7.87,2.65ZM253.97,404.9l32.4,26.73c14.97-14.32,38.24-24.74,43.38-45.9-23.16,11.94-49.45,18.28-75.78,19.17ZM268.59,443.23c-1.16-.1-2.44-.49-3.29-1.26-11.43-10.32-27.45-19.6-37.14-30.8-2.59-3-4.61-9.67-8.13-10.17-4.09-.58-22.05,4.45-26.8,6.22-57.73,21.45-102.43,102-58.28,153.52,14.39,16.79,32.53,23.38,55.19,21.69,1.48-13.54,1.86-27.08,5.16-40.39,7.9-31.85,30.26-59.67,54.67-81.6,4.69-4.21,12.53-9.02,16.69-13.35,1.19-1.24,2.42-1.82,1.94-3.85Z"/>
  <path d="M603.23,66.85c5.54,5.57,5.35,13.76,1.05,19.94-3.83,5.5-10.05,4.22-7.03,13.92l85.87,47.28c11.1-1.34,9.72-8.05,13.85-14.3,6.19-9.35,22.56-7.75,26.7,2.03,6.39,15.12-11.35,27.33-24.69,17.77l-9.93,8.35.96,87.95c.58.77,7.04,4.87,8.06,5.15,5.65,1.52,10.97-6.25,21.21,1.23,15.49,11.32-3.22,35.59-19.22,23.57-7.46-5.6-4.33-16.13-15.92-18.77l-85.79,47.47c-6.57,9.85,5.42,11,7.4,17.19,7.89,24.72-26.98,27.36-29.92,9.57-2.53-15.36,14.87-14.25,9.87-24.81-1.29-2.73-23.05-14.21-27.67-16.84-19.01-10.84-38.72-20.61-57.7-31.52-14.14-.25-9.09,16.32-20.24,19.67-29.16,8.75-25.94-42.39,4.59-25.39l8.65-5.59-1.26-91.79c-7.5-9.3-10.65-1.59-17.93-1.9-25.31-1.06-14.26-40.83,8.42-28.56,8.38,4.53,5.06,11.63,8.09,15.22,1.98,2.34,9.5,6.01,12.47,3.07,25.16-15.39,52-28.18,77.29-43.35,1.35-.81,4.14-1.09,4.44-1.41.57-.62.5-9.05,0-10.47-.76-2.14-7.39-4.13-8.79-10.72-3.34-15.73,16.73-24.48,27.17-13.96ZM616.97,132.85l-25.93-13.65-25.9,15.64,14.86,21.99,22.47-.56,14.5-23.43ZM511.93,162.85v31.93l1.99,1.92h30.58l21.74-30.24-14.41-25.35-39.91,21.75ZM668.83,196.7v-32.57c0-.38,1.9-1.45.1-2.52l-39.97-21.11-12.03,24.81,21.32,32.02c1.1.37,1.72-.64,2-.64h28.59ZM604.74,173.97h-26.06c-2.24,7.68-18.47,22.91-19.98,28.81-.47,1.84-.15,2.44.45,4.06.58,1.56,17.93,26.48,19.22,27.58.72.61,1.24,1.44,2.29,1.63l22.75-.03,20.94-30.28-19.61-31.78ZM513.27,212.03l-.69,34.5,35.67,19.48,3.57.39,14.17-24.37-20.8-30.65-31.91.65ZM668.84,212.02l-30.6-.64-21.28,30.74c-.19,1.95,12.03,24.79,13.28,25.57,1.64,1.02,2.27.06,3.61-.44,3.35-1.25,34.42-19.02,35.53-20.7l-.55-34.52ZM602.08,250.61l-21.02.36-15.94,22.92,27.25,15.67,24.57-13.07c2.31-1.48.74-1.32.08-2.54-4.17-7.74-10.88-15.39-14.95-23.34Z"/>
  <rect x="215.41" y="561.99" width="134.3" height="1.28"/>
  <rect x="218.07" y="103.46" width="132.97" height="1.28"/>
  <rect x="219.4" y="117.51" width="128.98" height="1.28"/>
  <rect x="227.38" y="546.66" width="121" height="1.28"/>
  <rect x="231.37" y="288.66" width="105.05" height="1.28"/>
  <rect x="242" y="274.61" width="83.77" height="1.28"/>
  <rect x="230.04" y="376.79" width="61.17" height="1.28"/>
  <path class="cls-1" d="M384.95,590.09c-.9-.12-7.15-2.2-7.87-2.65-4.95-3.15-3.86-31.31-4.77-38.84-3.59-29.69-16.9-54.38-37.86-76.03-4.12-4.26-31.79-26.66-31.27-28.68,15.89-12.62,38.51-27.57,45.28-47.23,3.76-10.91,2.23-17.36-1.72-27.86-3.6-9.57-18.43-28.8,3.44-27.67,15.18.78,28.56,10.22,38.13,20.95,5.85,6.55,11.77,23.49,19.31,10.95,4.02-6.68,4.14-11.61.39-18.37-1.68-3.03-14.2-14.69-13.08-16.15,13.76-6.92,23.57,1.64,26.51,14.75,34.95,2.9,76.1,18.03,101.84,41.4,11.02,10.01,13.13,13.31,8.98,27.85-13.31,46.66-71.12,47.23-99.45,79.46-18.93,21.53-33.31,60.21-21.91,87.49.03.47-2.85.66-3.34.66-6.77,0-16.33.84-22.6,0ZM471.69,393.59c-10.83,1.87-11.6,19.43,1.04,20.31,17.5,1.22,13.55-22.83-1.04-20.31Z"/>
  <path class="cls-1" d="M268.59,443.23c.48,2.03-.75,2.61-1.94,3.85-4.15,4.32-11.99,9.13-16.69,13.35-24.41,21.93-46.77,49.75-54.67,81.6-3.3,13.31-3.68,26.85-5.16,40.39-22.66,1.69-40.79-4.89-55.19-21.69-44.15-51.51.55-132.07,58.28-153.52,4.75-1.77,22.71-6.8,26.8-6.22,3.51.5,5.53,7.17,8.13,10.17,9.69,11.21,25.72,20.49,37.14,30.8.85.77,2.12,1.16,3.29,1.26Z"/>
  <path class="cls-1" d="M253.97,404.9c26.33-.89,52.61-7.24,75.78-19.17-5.14,21.16-28.41,31.57-43.38,45.9l-32.4-26.73Z"/>
  <path class="cls-1" d="M604.74,173.97l19.61,31.78-20.94,30.28-22.75.03c-1.06-.18-1.57-1.01-2.29-1.63-1.29-1.1-18.64-26.01-19.22-27.58-.6-1.62-.92-2.22-.45-4.06,1.51-5.9,17.75-21.13,19.98-28.81h26.06Z"/>
  <polygon class="cls-1" points="513.27 212.03 545.18 211.38 565.98 242.03 551.81 266.4 548.25 266 512.58 246.53 513.27 212.03"/>
  <path class="cls-1" d="M668.84,212.02l.55,34.52c-1.12,1.68-32.19,19.45-35.53,20.7-1.34.5-1.97,1.45-3.61.44-1.26-.78-13.48-23.62-13.28-25.57l21.28-30.74,30.6.64Z"/>
  <polygon class="cls-1" points="511.93 162.85 551.84 141.1 566.24 166.45 544.51 196.7 513.93 196.7 511.93 194.78 511.93 162.85"/>
  <path class="cls-1" d="M668.83,196.7h-28.59c-.28,0-.9,1-2,.64l-21.32-32.02,12.03-24.81,39.97,21.11c1.8,1.07-.1,2.14-.1,2.52v32.57Z"/>
  <path class="cls-1" d="M602.08,250.61c4.07,7.95,10.77,15.6,14.95,23.34.66,1.23,2.23,1.06-.08,2.54l-24.57,13.07-27.25-15.67,15.94-22.92,21.02-.36Z"/>
  <polygon class="cls-1" points="616.97 132.85 602.48 156.28 580.01 156.84 565.15 134.85 591.05 119.2 616.97 132.85"/>
  <path d="M471.69,393.59c14.59-2.52,18.54,21.53,1.04,20.31-12.64-.88-11.87-18.44-1.04-20.31Z"/>
</svg>